<svg width="119" height="29" xmlns="http://www.w3.org/2000/svg"><g fill="none"><path d="M30.013 14.137c-.062-3.943 3.091-7.278 7.623-7.216 1.16 0 2.153.142 2.99.447.854.284 1.484.55 1.87.793v2.357c-.368-.306-.957-.63-1.79-.975-.833-.367-1.852-.55-3.07-.55-3.353 0-5.325 2.256-5.325 5.144 0 2.866 2.052 5.142 4.961 5.142a6.32 6.32 0 003.74-1.24v-2.99h-4.129v-2.073h6.343v8.071h-2.215v-.713c-.815.51-2.113 1.015-3.739 1.015-4.273.003-7.321-3.27-7.26-7.212zm14.959 1.665c0-3.07 2.276-5.569 5.488-5.569 1.524 0 2.804.59 3.535 1.32V10.54h2.175v10.507h-2.215l.022-1.076c-.691.713-1.808 1.382-3.517 1.382-3.212 0-5.488-2.48-5.488-5.55zm9.147-.018c0-2.277-1.546-3.598-3.495-3.598-1.972 0-3.456 1.608-3.456 3.598 0 1.993 1.484 3.618 3.456 3.618 1.95 0 3.495-1.324 3.495-3.619zm20.793-1.201v6.463h-2.197v-6.24c0-1.688-.611-2.645-2.051-2.645-1.32 0-2.644.997-2.644 2.968v5.914h-2.197v-6.241c0-1.688-.611-2.644-2.051-2.644-1.219 0-2.459.854-2.623 2.56v6.321h-2.197V10.532h2.197v1.262c.124-.284.833-1.586 2.946-1.586 1.484 0 2.644.59 3.314 1.728.487-.913 1.585-1.728 3.578-1.728 2.36.004 3.925 1.488 3.925 4.375zm1.625 1.219c0-3.07 2.277-5.569 5.489-5.569 1.524 0 2.804.59 3.535 1.32v-4.31l2.197-.367v14.167H85.52l.022-1.077c-.691.713-1.808 1.382-3.517 1.382-3.212.004-5.489-2.477-5.489-5.546zm9.148-.018c0-2.277-1.546-3.598-3.496-3.598-1.97 0-3.516 1.608-3.516 3.598 0 1.993 1.545 3.618 3.516 3.618 1.95 0 3.496-1.324 3.496-3.618zm3.903.018c0-3.07 2.56-5.569 5.753-5.569 3.19 0 5.754 2.499 5.754 5.569s-2.56 5.55-5.754 5.55c-3.193 0-5.753-2.48-5.753-5.55zm9.39 0c0-1.993-1.564-3.597-3.637-3.597s-3.637 1.607-3.637 3.597c0 1.971 1.564 3.579 3.637 3.579s3.637-1.604 3.637-3.58zM119 14.583v6.463h-2.196v-6.24c0-1.688-.611-2.645-2.052-2.645-1.32 0-2.644.997-2.644 2.968v5.914h-2.197v-6.241c0-1.688-.611-2.644-2.051-2.644-1.218 0-2.459.854-2.622 2.56v6.321h-2.193V10.532h2.196v1.262c.124-.284.833-1.586 2.946-1.586 1.484 0 2.645.59 3.314 1.728.487-.913 1.586-1.728 3.579-1.728 2.356.004 3.92 1.488 3.92 4.375z" fill="#607D8B"/><path fill="#00D168" d="M11.038 17.588h-.003v6.856h.003z"/><path d="M10.478 14.081l-6.86 3.245a.599.599 0 00-.334.538v6.3c0 .232.131.44.335.538l6.863 3.247c.174.084.364.124.553.124V13.954c-.19.004-.379.047-.557.127z" fill="#00FF86"/><path fill="#00D168" d="M11.038 17.588h-.003v6.856h.003z"/><path d="M10.73.406L7.51 1.999v4.28L3.743 8.128V3.81L.367 5.487A.661.661 0 000 6.076v8.249c0 .483.513.804.946.589l9.503-4.663c.186-.09.386-.134.586-.134V.333a.686.686 0 00-.306.073z" fill="#00FF86"/><path d="M18.454 17.325l-6.863-3.244a1.205 1.205 0 00-.556-.124v14.12c.189 0 .385-.04.56-.124l6.86-3.248a.599.599 0 00.334-.539v-6.299a.6.6 0 00-.335-.542zm3.252-11.839L18.33 3.809V8.13l-3.772-1.848v-4.28L11.34.409a.699.699 0 00-.305-.073v9.784c.2 0 .4.047.585.134l9.504 4.663a.657.657 0 00.946-.59V6.08a.653.653 0 00-.364-.593z" fill="#01D370"/></g></svg>